<?xml version="1.0" encoding="UTF-8" standalone="no"?>
<!-- Created with Inkscape (http://www.inkscape.org/) -->

<svg
   version="1.1"
   id="svg1"
   width="685"
   height="649"
   viewBox="0 0 685 649"
   sodipodi:docname="phreaknic-26-logo.png"
   xmlns:inkscape="http://www.inkscape.org/namespaces/inkscape"
   xmlns:sodipodi="http://sodipodi.sourceforge.net/DTD/sodipodi-0.dtd"
   xmlns="http://www.w3.org/2000/svg"
   xmlns:svg="http://www.w3.org/2000/svg">
  <defs
     id="defs1" />
  <sodipodi:namedview
     id="namedview1"
     pagecolor="#ffffff"
     bordercolor="#000000"
     borderopacity="0.25"
     inkscape:showpageshadow="2"
     inkscape:pageopacity="0.0"
     inkscape:pagecheckerboard="0"
     inkscape:deskcolor="#d1d1d1">
    <inkscape:page
       x="0"
       y="0"
       width="685"
       height="649"
       id="page2"
       margin="0"
       bleed="0" />
  </sodipodi:namedview>
  <g
     inkscape:groupmode="layer"
     inkscape:label="Image"
     id="g1">
    <path
       style="fill:#000000"
       d="m 464.65484,630.32151 c -0.9524,-0.9524 0.40226,-7.6568 1.7394,-8.60861 0.60817,-0.43291 -0.58174,-0.49532 -2.64424,-0.13871 l -3.75,0.64839 v -5.7197 -5.7197 l 2.75,0.67422 c 3.72878,0.91418 5.28467,2.63256 5.53754,6.11585 0.17487,2.40888 0.74329,3.01522 3.21246,3.42675 2.54222,0.4237 3.04856,1.0059 3.31823,3.81532 0.17503,1.82343 -0.21757,3.96093 -0.87244,4.75 -1.20413,1.45088 -8.0399,2.00724 -9.29095,0.75619 z m 6.76337,-1.9285 C 472.2882,628.05917 473,626.67928 473,625.32659 c 0,-2.08027 -0.41377,-2.41065 -2.68394,-2.14301 -1.95696,0.23071 -2.88155,1.06128 -3.41351,3.06642 -0.60082,2.26466 -0.40631,2.75 1.10215,2.75 1.00745,0 2.54353,-0.27314 3.41351,-0.60699 z m -5.59866,-11.63279 C 465.34535,613.43647 462,613.14434 462,616.42668 c 0,1.93548 0.51297,2.57332 2.06955,2.57332 1.57185,0 1.9927,-0.53864 1.75,-2.23978 z m 11.72663,4.98978 c 0.85714,-3.95087 2.04403,-4.85004 5.95382,-4.51052 2.54692,0.22117 2.96045,0.63809 2.73812,2.76052 -0.46525,4.44134 -1.05589,5 -5.28619,5 h -4.11084 z M 484,620.89301 c 0,-1.51045 -0.44784,-1.93514 -1.58179,-1.5 -0.86998,0.33385 -1.76998,0.60699 -2,0.60699 -0.23001,0 -0.41821,0.675 -0.41821,1.5 0,0.83333 0.88889,1.5 2,1.5 1.36719,0 2,-0.66667 2,-2.10699 z m 18.40185,-2.2882 c -0.29446,-0.76735 -0.0428,-3.22467 0.55935,-5.46071 0.94274,-3.50106 1.61151,-4.20906 4.81677,-5.09924 2.04711,-0.56854 4.28453,-1.03622 4.97203,-1.03928 3.44716,-0.0154 -1.09957,11.31965 -4.95479,12.35231 -3.53044,0.94567 -4.81006,0.767 -5.39336,-0.75308 z M 509,616.50555 c 0,-0.14372 0.65323,-1.82469 1.45161,-3.7355 1.43773,-3.44096 1.42845,-3.46978 -0.96946,-3.01139 -2.85245,0.54528 -3.98116,1.79598 -4.82772,5.34951 -0.56074,2.3538 -0.37914,2.56186 1.86212,2.13342 1.3659,-0.26111 2.48345,-0.59233 2.48345,-0.73604 z m -21.28011,-2.119 c -1.00379,-1.00379 -0.8723,-5.59737 0.20914,-7.30596 0.70023,-1.1063 1.63434,-1.20223 4.23469,-0.43488 2.72402,0.80384 3.28513,1.42746 3.05754,3.39814 -0.15331,1.3275 -0.60331,2.72885 -1,3.11413 -1.1804,1.14642 -5.72477,2.00518 -6.50137,1.22857 z M 493,610.49036 c 0,-1.41812 -2.46666,-2.69037 -3.40223,-1.75479 -0.32878,0.32877 -0.59777,1.38063 -0.59777,2.33748 0,1.24738 0.56599,1.5917 2,1.2167 1.1,-0.28766 2,-1.09738 2,-1.79939 z m -63,-1.05073 v -4.56036 l 3.68383,0.31036 c 3.13676,0.26428 3.80432,0.75589 4.49519,3.31037 1.19503,4.41861 0.37954,5.5 -4.14764,5.5 H 430 Z m 6,0.0604 c 0,-1.83333 -0.53333,-2.5 -2,-2.5 -1.46667,0 -2,0.66667 -2,2.5 0,1.83333 0.53333,2.5 2,2.5 1.46667,0 2,-0.66667 2,-2.5 z m 176.53847,3.56224 c -0.7778,-1.25851 4.192,-8.06224 5.88909,-8.06224 0.6546,0 2.06369,0.63989 3.13131,1.42197 1.91506,1.40288 1.91295,1.45995 -0.15774,4.25 -2.18043,2.93792 -7.61786,4.4044 -8.86266,2.39027 z m 6.42905,-3.00155 c 1.54052,-2.8785 -0.18778,-3.22783 -2.2642,-0.45766 -1.50885,2.01296 -1.55454,2.39697 -0.28519,2.39697 0.83133,0 1.97855,-0.87269 2.54939,-1.93931 z m -146.45701,-0.0437 c -0.33413,-0.54064 -0.31061,-2.56564 0.0523,-4.5 0.69082,-3.68241 2.10246,-4.24939 7.18721,-2.88672 2.2733,0.60922 2.94659,3.39085 1.64301,6.78792 -0.68345,1.78106 -7.85311,2.26439 -8.8825,0.5988 z m 7.28781,-3.18157 c 0.18818,-0.99309 -0.54471,-1.93756 -1.81681,-2.34131 -2.46149,-0.78125 -2.49856,-0.75619 -3.44855,2.3311 -0.64491,2.09585 -0.43605,2.29314 2.11722,2 1.67342,-0.19213 2.96181,-1.00646 3.14814,-1.98979 z m -67.13165,2.49789 C 412.3,608.96667 412,607.40024 412,605.85239 c 0,-2.15046 0.57629,-2.95893 2.44316,-3.42748 3.42978,-0.86082 4.55684,0.16168 4.55684,4.13411 0,3.11166 -0.27116,3.44098 -2.83333,3.44098 -1.55834,0 -3.13334,-0.3 -3.5,-0.66667 z M 417,605.91667 c 0,-2.43705 -2.33677,-2.09257 -2.82332,0.4162 -0.19138,0.98676 0.31876,1.66713 1.25,1.66713 0.92763,0 1.57332,-0.855 1.57332,-2.08333 z m 30,-1.90325 c 0,-3.63324 0.31963,-4.12013 3.60623,-5.49336 1.98343,-0.82873 4.00843,-1.25821 4.5,-0.9544 0.49158,0.3038 0.89377,2.49457 0.89377,4.86836 0,4.0339 -0.20424,4.35683 -3.125,4.94098 -5.52503,1.10501 -5.875,0.90476 -5.875,-3.36158 z m 7,-1.73699 c 0,-1.86008 -0.40035,-2.33678 -1.58179,-1.88342 -0.86998,0.33385 -1.99498,0.60699 -2.5,0.60699 -0.50501,0 -0.91821,1.0626 -0.91821,2.36133 0,1.97952 0.40423,2.28405 2.5,1.88342 1.8695,-0.35738 2.5,-1.10598 2.5,-2.96832 z m 97.25,2.69241 c -1.2375,-0.49742 -2.25,-1.1502 -2.25,-1.45064 0,-1.47362 4.66555,-7.495 5.81574,-7.50582 2.40437,-0.0226 5.18426,2.03363 5.18426,3.83475 0,1.4175 -5.02715,6.34748 -6.20951,6.08948 -0.15977,-0.0349 -1.30299,-0.47036 -2.54049,-0.96777 z m 4.71365,-3.42504 c 1.30456,-1.57189 0.49332,-3.94426 -1.02737,-3.00442 -0.50904,0.3146 -1.39378,1.44694 -1.96609,2.51631 -0.80238,1.49927 -0.71719,1.94431 0.37218,1.94431 0.77701,0 1.95658,-0.65529 2.62128,-1.4562 z m 71.70302,2.78953 c -2.2779,-2.27789 2.70954,-9.17042 5.78245,-7.99123 2.73584,1.04984 1.87459,5.43914 -1.39946,7.13222 -3.36714,1.74122 -3.47889,1.76312 -4.38299,0.85901 z M 633,599.9244 c 0,-0.4739 -0.675,-0.60261 -1.5,-0.28603 -0.825,0.31659 -1.5,0.96334 -1.5,1.43723 0,0.4739 0.675,0.60261 1.5,0.28603 0.825,-0.31659 1.5,-0.96334 1.5,-1.43723 z m -64.59026,2.70098 c -0.31839,-0.8297 -0.42833,-2.25793 -0.24431,-3.17383 0.40354,-2.00856 7.37317,-6.24628 8.46966,-5.14979 0.42699,0.42698 0.12127,2.67126 -0.67938,4.98729 -1.17979,3.4128 -1.97803,4.27103 -4.2114,4.52792 -1.75858,0.20228 -2.96514,-0.22887 -3.33457,-1.19159 z M 574,598.22257 c 0,-1.29034 -0.31235,-1.24987 -1.97642,0.25609 -1.08703,0.98375 -1.72197,2.20034 -1.41097,2.70355 0.77053,1.24673 3.38739,-1.03968 3.38739,-2.95964 z m -74,2.86671 c -1.89635,-0.55603 -2.43677,-1.31933 -2.23812,-3.16116 C 498.22206,593.6615 498.86156,593 502.52611,593 h 3.58889 l -0.3075,4.24137 c -0.32832,4.5285 -1.29713,5.17041 -5.8075,3.84791 z M 504,597 c 0,-1.33333 -0.66667,-2 -2,-2 -1.33333,0 -2,0.66667 -2,2 0,1.33333 0.66667,2 2,2 1.33333,0 2,-0.66667 2,-2 z m 82.32639,0.3761 c 0.71436,-4.40205 0.7273,-4.4161 4.30203,-4.67119 2.6304,-0.1877 2.84427,0.0461 2.5464,2.78321 -0.42623,3.91675 -1.85242,5.51188 -4.92811,5.51188 -2.32459,0 -2.4653,-0.26554 -1.92032,-3.6239 z m 4.32853,0.0808 c 0.80982,-2.11034 -0.54185,-3.2497 -1.69398,-1.42791 -1.22421,1.93575 -1.19966,2.97104 0.0704,2.97104 0.56727,0 1.29786,-0.69441 1.62354,-1.54313 z M 643,598.57143 C 643,595.65448 645.41625,593 648.07143,593 c 1.44558,0 1.92857,0.70123 1.92857,2.8 0,3.40062 -1.62636,5.2 -4.7,5.2 -1.76863,0 -2.3,-0.56108 -2.3,-2.42857 z m 5,-2.30086 c 0,-1.23369 -0.27889,-1.284 -1.5,-0.27057 -0.825,0.68469 -1.5,1.62567 -1.5,2.09106 0,0.46539 0.675,0.58715 1.5,0.27057 0.825,-0.31659 1.5,-1.25756 1.5,-2.09106 z M 436.97525,595.4349 c -1.62486,-4.27369 -1.16943,-6.41058 1.58985,-7.45965 3.60944,-1.37231 4.2242,-1.24288 4.86751,1.02475 0.31207,1.1 0.81529,2.8766 1.11828,3.94801 0.40841,1.44421 -0.22529,2.34938 -2.45034,3.5 -3.89908,2.01629 -3.97957,2.00038 -5.1253,-1.01311 z m 4.8443,-3.26323 C 442.05973,590.5394 441.62507,590 440.06955,590 c -2.16687,0 -2.48353,0.75762 -1.44634,3.46048 0.84023,2.18961 2.80083,1.39907 3.19634,-1.28881 z M 419.69842,596.25 c -0.23078,-0.4125 -0.20415,-2.47138 0.0592,-4.57529 0.50807,-4.05923 3.59039,-6.52262 6.67863,-5.33755 1.89587,0.72751 2.16252,7.66409 0.36377,9.46284 -1.31888,1.31888 -6.43411,1.64301 -7.10158,0.45 z m 5.12885,-5.26359 c 0.28852,-2.96167 0.14047,-3.20453 -1.25,-2.05054 -1.89367,1.57161 -2.16652,6.42423 -0.32727,5.82045 0.6875,-0.22569 1.39727,-1.92215 1.57727,-3.76991 z m 214.72459,-1.90249 c -0.87641,-1.41807 1.10194,-5.73709 2.95332,-6.44754 4.28802,-1.64546 5.8957,0.87754 3.45964,5.42936 -1.06379,1.98771 -5.38931,2.67447 -6.41296,1.01818 z m 4.4361,-3.06141 c 0.86343,-1.61335 0.77784,-1.86987 -0.46482,-1.39302 -0.83773,0.32147 -1.52314,1.21134 -1.52314,1.9775 0,1.95331 0.74736,1.73358 1.98796,-0.58448 z M 454,586.88136 c 0,-0.68165 0.5404,-2.73381 1.20089,-4.56036 2.11586,-5.8513 8.54508,-3.77965 6.94737,2.23861 -0.66166,2.49235 -1.34192,2.98768 -4.46443,3.25076 C 455.25334,588.01514 454,587.69906 454,586.88136 Z m 5.62,-2.33347 c 0.8161,-2.12673 -0.63103,-4.13856 -1.72969,-2.40465 -1.17921,1.86103 -1.10621,3.85676 0.14107,3.85676 0.56727,0 1.28214,-0.65345 1.58862,-1.45211 z M 591,583.96482 C 591,581.94406 594.25577,578 595.92388,578 c 0.93162,0 2.5614,0.63436 3.62172,1.40968 1.89179,1.38332 1.89247,1.44878 0.0361,3.5 -1.97952,2.18738 -8.5817,2.99913 -8.5817,1.05514 z m 6.45729,-1.89572 c 1.00194,-1.62117 -1.17528,-2.11382 -2.46643,-0.55809 -1.00476,1.21067 -0.94351,1.48899 0.32768,1.48899 0.85988,0 1.82232,-0.41891 2.13875,-0.9309 z M 510.61928,579.25 c 1.32995,-5.56349 2.22234,-6.37997 6.61727,-6.05436 2.25941,0.1674 4.29226,0.8647 4.51746,1.54955 0.73009,2.22029 -5.30465,7.25481 -8.69614,7.25481 -2.87013,0 -3.04802,-0.20061 -2.43859,-2.75 z m 7.44757,-2.37491 C 518.92542,575.27083 518.70419,575 516.53518,575 515.14083,575 514,575.4132 514,575.91821 c 0,0.50502 -0.26055,1.59719 -0.57899,2.42704 -0.86028,2.24185 3.37682,0.90103 4.64584,-1.47016 z m 12.40597,4.08093 C 529.2337,578.95108 532.87643,575 535.96404,575 c 3.64609,0 4.38707,1.13529 2.88815,4.42506 -0.91348,2.00487 -1.89948,2.57494 -4.45369,2.57494 -1.80426,0 -3.57081,-0.46979 -3.92568,-1.04398 z m 6.30948,-2.80152 c 0.28658,-0.86063 -0.19425,-1.221 -1.33427,-1 -0.98026,0.19002 -1.98391,0.95098 -2.23033,1.691 -0.28658,0.86063 0.19425,1.221 1.33427,1 0.98026,-0.19002 1.98391,-0.95098 2.23033,-1.691 z M 471,574.625 c 0,-4.441 1.24588,-8.625 2.5683,-8.625 3.54362,0 6.05616,9.16266 2.84991,10.39301 C 472.99267,577.70751 471,577.05729 471,574.625 Z m 5,-2.17297 c 0,-2.03077 -1.71074,-2.64822 -2.39522,-0.8645 -0.97701,2.54606 -0.70523,3.38825 0.89522,2.7741 0.825,-0.31659 1.5,-1.1759 1.5,-1.9096 z m 78,1.81855 c 0,-4.25713 2.04314,-6.50537 5.54931,-6.10637 2.57405,0.29293 2.92386,0.70726 2.74049,3.24599 -0.2567,3.55407 -0.88887,4.18926 -5.0398,5.0639 -3.07458,0.64785 -3.25,0.52892 -3.25,-2.20352 z m 5.7823,-2.11608 c 0.28658,-0.86063 -0.19425,-1.221 -1.33427,-1 -0.98026,0.19002 -1.98391,0.95098 -2.23033,1.691 -0.28658,0.86063 0.19425,1.221 1.33427,1 0.98026,-0.19002 1.98391,-0.95098 2.23033,-1.691 z m -66.38273,-5.6104 c 1.97562,-7.87146 4.18251,-9.56202 6.59586,-5.05264 2.03386,3.80031 0.0177,7.50854 -4.0824,7.50854 -2.82417,0 -3.06965,-0.23985 -2.51346,-2.4559 z m 4.99669,-1.13434 c 0.83287,-2.17043 -0.39545,-4.01911 -1.50595,-2.26652 -1.12627,1.77749 -1.12481,3.85676 0.003,3.85676 0.49116,0 1.16762,-0.71561 1.50325,-1.59024 z m -231.72959,-1.07643 c -1.21451,-1.21451 -0.69333,-4.36075 1.40309,-8.47007 1.13837,-2.23139 1.88251,-4.24432 1.65366,-4.47318 -0.56348,-0.56347 -38.08185,-4.68924 -71.72342,-7.88718 -33.59439,-3.19346 -34,-3.25276 -34,-4.97066 0,-1.40938 1.79619,-2.12703 12.79758,-5.11314 6.26997,-1.70186 6.29475,-1.72296 5.65091,-4.81423 -0.35567,-1.70768 -1.38958,-4.41048 -2.29758,-6.00623 l -1.65091,-2.90135 -15,0.19544 c -16.02278,0.20877 -29.80664,1.42718 -35.5,3.138 -5.72738,1.72103 -25.48606,3.94744 -41.085825,4.62955 -12.771276,0.55843 -14.661499,0.44057 -15.194115,-0.94741 -0.485265,-1.26458 1.251201,-2.19337 8.585825,-4.59231 10.953283,-3.58251 28.464295,-8.34889 53.694115,-14.61519 28.7186,-7.1328 34.66109,-9.10136 35.34273,-11.70797 0.31787,-1.21553 0.47066,-2.31734 0.33953,-2.44847 -0.13112,-0.13113 -2.02578,0.17599 -4.21033,0.68247 -9.15443,2.12244 -30.6104,-0.79637 -31.27643,-4.25475 -0.25149,-1.30588 1.10981,-1.72042 7.49862,-2.28342 15.68325,-1.38207 58.22679,-9.08081 60.00448,-10.8585 0.27045,-0.27044 0.18342,-1.8954 -0.19339,-3.61101 -0.67943,-3.09344 -0.72373,-3.11306 -5.34516,-2.36749 -5.55135,0.89559 -10.19381,0.68104 -15.35909,-0.70982 -6.64391,-1.78903 -4.61336,-3.42862 7.94904,-6.41853 6.4625,-1.53811 14.5625,-3.65419 18,-4.7024 6.24975,-1.90577 6.25,-1.90599 6.25,-5.74322 0,-2.20595 -0.64333,-4.37129 -1.51323,-5.09324 -1.68187,-1.39582 -9.29711,-1.02283 -23.22919,1.13776 -6.64212,1.03006 -10.62226,1.03608 -20.5,0.031 -38.86273,-3.95434 -96.699312,-8.06501 -140.176653,-9.96289 -10.901633,-0.47588 -16.043614,-1.0708 -16.314213,-1.88754 -0.233702,-0.70538 1.163192,-1.52121 3.419073,-1.99685 2.097817,-0.44232 58.465011,-0.80563 125.260433,-0.80736 l 121.44622,-0.003 2.24352,16.5 c 1.23394,9.075 3.21608,24.15 4.40474,33.5 1.29215,10.16392 2.7036,17.56862 3.51001,18.41404 1.15104,1.20671 2.02254,0.66467 5.94394,-3.69686 4.85744,-5.40265 8.00461,-7.11792 9.78792,-5.33461 0.77499,0.77499 0.22899,2.14852 -1.92768,4.84934 -1.6549,2.07245 -4.29781,5.97945 -5.87311,8.68222 -2.73189,4.68713 -2.87052,5.52202 -3.00096,18.07325 l -0.13676,13.15911 2.57797,-2.88499 c 1.79972,-2.01405 3.86099,-3.05704 6.82797,-3.45491 5.17863,-0.69446 5.48063,0.52777 1.30541,5.28308 -1.61952,1.84453 -5.26589,7.30394 -8.10305,12.13201 -7.92014,13.47793 -10.432,16.46534 -12.28569,14.61165 z m 9.88009,-15.27246 c 2.66556,-4.64153 6.15461,-9.92903 7.75345,-11.75 1.59883,-1.82098 2.52286,-3.29492 2.05338,-3.27543 -1.76043,0.0731 -5.25843,2.55743 -7.34218,5.21456 -4.24483,5.41289 -4.81507,3.98675 -4.7981,-12 0.017,-15.99318 0.25262,-16.91121 6.99505,-27.25 2.84424,-4.36134 2.76839,-4.31885 -2.46175,1.37889 -4.80889,5.23882 -5.62587,5.7561 -7.50379,4.75106 -3.02132,-1.61696 -2.04269,3.9217 -10.0943,-57.12995 L 259.5,436.5 l -101,-0.25228 c -55.55,-0.13876 -105.725,0.13612 -111.5,0.61085 -9.804633,0.80598 -10.036422,0.87242 -3.5,1.00331 18.606448,0.3726 87.38247,5.4293 126,9.26405 10.36689,1.02944 13.30973,0.96586 21.62387,-0.46716 17.8333,-3.07375 23.85825,-2.02394 23.88978,4.16266 0.008,1.47321 0.27262,3.64373 0.58913,4.82338 0.49662,1.85096 -0.15601,2.41478 -4.76366,4.11538 -2.93651,1.08381 -10.62899,3.24943 -17.09439,4.81249 -13.65116,3.30027 -13.72697,5.10662 -0.16814,4.00646 7.62925,-0.61903 8.38845,-0.51299 9.36293,1.30786 1.75356,3.27654 1.29339,7.91798 -0.90147,9.09264 -4.07065,2.17854 -48.03945,10.01203 -56.22903,10.01777 -6.5715,0.005 -4.96015,1.69382 2.89794,3.03799 6.04296,1.03368 9.09582,1.06256 14.49287,0.13707 8.98182,-1.54022 8.80017,-1.56898 8.80017,1.39327 0,6.54671 -0.51459,6.75531 -44,17.83659 -16.225,4.13457 -34.675,9.11316 -41,11.06353 l -11.5,3.54612 12,-0.56168 c 17.4872,-0.81853 29.804,-2.23362 40,-4.59564 10.74976,-2.4903 49.96566,-4.31372 52.40848,-2.43683 2.028,1.55816 5.04385,8.60982 5.06956,11.85361 0.0245,3.092 -0.87221,3.63787 -10.47804,6.37851 l -6,1.71185 24,2.31219 c 42.50328,4.09482 78.86033,8.28634 79.77056,9.19657 0.5151,0.5151 -0.19361,3.01748 -1.69212,5.97464 -5.36713,10.59154 -1.45936,6.14948 5.96832,-6.78433 z M 546,557.69113 c 0,-3.7765 2.06802,-5.56822 5.75,-4.98178 2.7571,0.43914 3.25,0.93646 3.25,3.27915 0,2.29288 -0.5303,2.86756 -3.125,3.3865 -5.03506,1.00701 -5.875,0.76627 -5.875,-1.68387 z m 7,-1.87726 c 0,-1.31002 -4.25484,-0.58298 -4.71131,0.80503 -0.23221,0.70613 0.56895,0.93981 2.17168,0.63343 C 551.85716,556.98531 553,556.33801 553,555.81387 Z m -27,-2.83862 C 526,549.73356 528.63596,548 533.5651,548 c 2.85817,0 2.8655,0.0337 0.98593,4.53212 -1.26773,3.03409 -1.89317,3.46788 -5,3.46788 C 526.26565,556 526,555.77372 526,552.97525 Z m 6.41655,-0.61838 c 0.34679,-0.90372 0.43348,-1.84018 0.19263,-2.08102 -0.67871,-0.67871 -4.60918,1.6743 -4.60918,2.75933 0,1.63853 3.74841,1.06283 4.41655,-0.67831 z M 306,542.3102 c 0,-5.3294 -0.53946,-12.30164 -1.19881,-15.49387 -1.08929,-5.2738 -0.98476,-6.46698 1.14416,-13.06019 3.15744,-9.77857 3.17432,-20.91679 0.0444,-29.25614 -1.96549,-5.23678 -2.35017,-8.79847 -3.02409,-28 -0.42468,-12.1 -1.07793,-24.025 -1.45165,-26.5 -0.911,-6.03304 2.1508,-59.77379 4.03162,-70.76321 1.82281,-10.65048 2.12914,-11.55586 3.60193,-10.64563 1.16147,0.71784 1.00932,13.25449 -0.80389,66.23405 l -0.6614,19.32521 3.40889,-0.32521 c 3.37493,-0.32197 3.42537,-0.39993 5.06315,-7.82521 0.90984,-4.125 1.69734,-9.8625 1.75,-12.75 0.11408,-6.25552 1.86068,-6.95856 4.60901,-1.85522 1.74816,3.24614 1.75505,3.83526 0.15747,13.45481 -1.0209,6.14714 -1.67074,15.69212 -1.67074,24.54012 0,7.96405 -0.45519,15.67734 -1.01154,17.14065 -0.70666,1.85865 -0.65904,3.83711 0.15799,6.56412 1.00477,3.3536 0.90655,4.39192 -0.69713,7.36978 -1.685,3.12884 -1.75509,4.23178 -0.7202,11.3322 1.03714,7.1158 0.91244,9.04193 -1.30755,20.19596 -1.34971,6.78148 -2.19584,13.14342 -1.88029,14.13765 0.56471,1.77922 5.94664,3.85335 10.02722,3.86435 4.85905,0.0131 12.58611,-3.22161 16.42949,-6.87773 4.27771,-4.06929 4.80331,-6.30051 3.06252,-13.00067 -0.51672,-1.98881 -1.48598,-8.2018 -2.15392,-13.80664 -1.04378,-8.75874 -1.00529,-10.51511 0.27396,-12.5 3.06378,-4.75377 3.81643,-9.68046 5.90906,-38.67964 l 2.14552,-29.73222 -2.66605,-5.2612 -2.66605,-5.2612 2.04525,-5.46642 c 4.72319,-12.62388 12.03173,-69.70137 12.0467,-94.08115 l 0.005,-8.17245 -3.42114,-1.12907 c -2.51962,-0.83156 -7.69538,-0.84535 -19.64145,-0.0523 -8.92118,0.5922 -16.45666,0.84039 -16.74553,0.55152 -0.28887,-0.28886 0.56229,-0.57007 1.89145,-0.62489 l 2.41667,-0.0997 -2.5,-0.70639 c -2.56997,-0.72615 3.49178,-2.22756 30.5,-7.5544 9.54392,-1.88235 11.16351,-2.49188 12.23526,-4.60469 2.14653,-4.23163 1.56586,-11.40262 -1.26061,-15.56765 -3.82343,-5.63414 -4.05506,-7.99529 -1.51598,-15.45334 2.23425,-6.56265 2.2473,-6.85715 0.71142,-16.04975 -2.21738,-13.27148 -3.29691,-31.36985 -1.81658,-30.45495 0.63057,0.38971 1.14649,0.15701 1.14649,-0.51712 0,-3.52074 1.40638,1.32412 3.98964,13.74403 3.18576,15.31658 8.47056,61.56802 7.75427,67.86362 -0.25031,2.2 -1.81414,6.025 -3.47518,8.5 -2.88978,4.30585 -3.07027,5.21188 -4.18362,21 -1.90853,27.06431 -4.05372,48.48903 -6.64272,66.34285 -2.53252,17.46442 -2.87598,25.45406 -1.79551,41.76835 l 0.63653,9.6112 123.6083,0.76511 C 613.8368,435.30421 624.5,435.56685 624.5,438 c 0,1.23053 -2.60485,1.6322 -14.5,2.23592 -7.975,0.40475 -28.20823,1.66034 -44.96273,2.79019 -23.32914,1.57322 -34.83753,1.89316 -49.1445,1.36626 -11.18841,-0.41205 -27.64866,-0.20859 -41.03726,0.50726 -44.01809,2.35352 -48.26254,2.95382 -66.11313,9.35057 l -6.75763,2.42158 22.75763,2.73248 c 26.65884,3.2009 32.19034,4.25684 32.97219,6.29429 1.09888,2.86364 -2.00378,3.44196 -15.29188,2.8503 -12.82176,-0.5709 -13.14421,-0.53323 -16.5,1.92749 -1.88248,1.38037 -5.18658,3.37498 -7.34244,4.43246 l -3.91976,1.92269 3.91976,1.04544 c 2.15586,0.57498 15.39475,3.81017 29.41975,7.1893 14.025,3.37913 25.82401,6.6591 26.22002,7.28882 1.1724,1.86431 -3.03421,2.48837 -12.85393,1.90692 -8.62015,-0.51043 -9.32324,-0.39957 -12.5,1.97099 -1.85135,1.38151 -4.71609,2.96686 -6.36609,3.52301 -3.64769,1.22949 -4.54934,0.85058 17,7.14411 66.37586,19.38523 68.5,20.08386 68.5,22.52984 0,2.43805 -4.25156,2.88186 -16.28063,1.6995 C 500.93321,530.06924 465,528.81929 465,529.50428 c 0,0.18293 1.575,1.306 3.5,2.49572 3.68834,2.27952 4.81416,6 1.8156,6 -2.95951,0 -13.29497,3.22436 -12.81659,3.9984 0.25344,0.41006 3.61984,1.56492 7.48089,2.56635 7.2779,1.88765 9.05402,3.88593 4.2701,4.8042 -1.5125,0.29033 -9.05,1.05013 -16.75,1.68846 -13.62038,1.12911 -14.6101,1.07299 -36.5,-2.06964 -15.52627,-2.22903 -24.82458,-4.07736 -30,-5.96345 -4.72124,-1.72057 -12.62075,-3.3908 -21.32114,-4.50805 -13.26515,-1.70343 -16.38341,-1.69289 -33.00489,0.11153 l -5.82603,0.63247 2.82603,1.92194 c 1.55432,1.05706 5.41353,3.25498 8.57603,4.88426 3.1625,1.62928 5.75,3.63084 5.75,4.44793 C 343,551.775 340.19811,552 324.5,552 H 306 Z m 25.55356,3.18892 C 323.44439,540.87791 320,538.30663 320,536.87422 c 0,-0.4487 3.0375,-0.74747 6.75,-0.66395 3.7125,0.0835 10.81514,-0.21492 15.78363,-0.66321 10.02719,-0.90471 33.67692,1.47192 40.96637,4.11683 2.2,0.79825 5.8,2.07828 8,2.84451 2.2,0.76623 14.01836,2.80613 26.26303,4.53311 20.54473,2.89761 23.03687,3.05577 32.28922,2.04922 5.5144,-0.5999 12.14604,-1.14003 14.73697,-1.2003 l 4.71078,-0.10956 -4.09329,-0.81154 C 459.2161,545.74198 454,543.28265 454,541.59121 c 0,-1.45557 10.96715,-5.58611 14.85534,-5.59495 1.03654,-0.002 0.5354,-0.68194 -1.35534,-1.83794 -4.07133,-2.48921 -6.0515,-5.00682 -4.86849,-6.18983 0.90012,-0.90012 47.78109,0.40964 58.36849,1.6307 3.34319,0.38558 4.1144,0.24598 3,-0.54305 -1.81788,-1.28712 -12.70879,-4.69267 -45,-14.07135 -41.45819,-12.04114 -41,-11.8847 -41,-13.99851 0,-1.24261 1.45973,-2.5877 4.25,-3.91621 2.3375,-1.11293 5.73466,-2.8893 7.54925,-3.9475 2.56445,-1.49547 4.68028,-1.83652 9.5,-1.53129 4.75926,0.3014 0.0403,-1.17462 -20.29925,-6.3493 -28.88241,-7.3481 -30.99256,-8.42731 -22.84884,-11.68579 2.33667,-0.93495 5.80277,-3.06458 7.70245,-4.73252 l 3.45396,-3.03262 14.09622,0.64512 c 24.30047,1.11211 12.5788,-1.56642 -26.40379,-6.03357 -15.70491,-1.79968 -18.29573,-2.38826 -17.20921,-3.90958 0.82,-1.14814 10.25909,-4.70088 21.55457,-8.11283 12.81765,-3.87175 63.1703,-7.06024 96.99842,-6.14226 14.89722,0.40426 28.67985,-0.012 52.82478,-1.59548 17.96771,-1.17835 32.94225,-2.41699 33.27676,-2.75254 0.3345,-0.33555 -54.86635,-0.94197 -122.66856,-1.34761 -67.80222,-0.40564 -123.40207,-0.85641 -123.55523,-1.00171 -0.15316,-0.14531 -0.54592,-8.31388 -0.8728,-18.15239 -0.53051,-15.96712 -0.31344,-19.83788 2.02122,-36.04269 2.64452,-18.35551 4.57616,-37.65706 6.68969,-66.84551 1.13938,-15.73525 1.21795,-16.09666 4.74802,-21.84142 l 3.58947,-5.84142 -2.748,-26.15858 C 366.94993,234.96447 363.3727,212.73746 363.10551,220 c -0.0708,1.925 0.62922,8.57798 1.55565,14.7844 1.67508,11.2219 1.67213,11.3192 -0.53337,17.56655 -2.40382,6.8091 -2.11422,9.05062 1.89712,14.68403 1.47859,2.07649 1.97509,4.40393 1.97509,9.25861 0,10.0235 -0.73021,10.56869 -19.15635,14.30258 L 333.5,293.70541 346.08712,293.6027 c 9.31789,-0.076 13.01902,0.25376 14.25,1.26974 1.34115,1.10691 1.66178,3.23519 1.65719,11 -0.0155,26.30331 -7.95822,87.45148 -12.48078,96.08575 -1.12679,2.15122 -0.96633,3.11323 1.28498,7.70355 l 2.57256,5.24536 -2.20992,31.29645 c -2.06423,29.23314 -2.3804,31.64749 -4.79561,36.6211 -1.9228,3.95959 -2.41403,6.1387 -1.91612,8.5 0.36826,1.74644 1.12588,6.77535 1.68361,11.17535 0.55772,4.4 1.2615,9.77437 1.56395,11.94304 1.58138,11.3391 -14.53692,20.50603 -28.996,16.49084 -5.96896,-1.65754 -6.43697,-3.85848 -3.7261,-17.52298 1.81948,-9.17138 2.13601,-12.97204 1.5197,-18.24753 -1.09399,-9.36427 -0.86964,-12.94201 0.98947,-15.77936 1.36356,-2.08107 1.42417,-2.99584 0.38827,-5.86057 -0.95257,-2.63427 -0.96375,-4.27492 -0.0499,-7.32503 C 318.49033,463.9691 319,456.01047 319,447.8102 c 0,-8.59022 0.63718,-18.16711 1.57002,-23.59766 1.11895,-6.51404 1.27134,-9.6531 0.53041,-10.92622 -0.84748,-1.45619 -1.04975,-1.04709 -1.09447,2.21368 -0.0525,3.82893 -0.93683,8.6231 -3.08966,16.75 -0.98435,3.71587 -1.03999,3.75 -6.11479,3.75 h -5.1214 l 0.65211,-23.75 c 0.35866,-13.0625 0.86212,-30.05 1.11878,-37.75 0.69312,-20.7936 -1.02378,-9.43533 -2.49412,16.5 -1.52377,26.87788 -1.55002,33.8058 -0.23869,63 0.91309,20.32814 1.36022,24.30984 3.31278,29.5 3.17972,8.45212 3.17196,22.40248 -0.0174,31.39271 -2.09099,5.89405 -2.16659,6.83012 -0.96915,12 0.71432,3.08401 1.22713,9.54479 1.13959,14.35729 l -0.15917,8.75 h 15.71339 15.71339 z M 470.75,492.31067 c -0.9625,-0.25152 -2.5375,-0.25152 -3.5,0 -0.9625,0.25153 -0.175,0.45733 1.75,0.45733 1.925,0 2.7125,-0.2058 1.75,-0.45733 z M 308.66228,352.75 c -0.27741,-0.6875 -0.50439,-0.125 -0.50439,1.25 0,1.375 0.22698,1.9375 0.50439,1.25 0.27741,-0.6875 0.27741,-1.8125 0,-2.5 z m 21.06689,-58.35417 c -0.33229,-0.33229 -1.1948,-0.36781 -1.91667,-0.0789 -0.79773,0.31922 -0.56078,0.55618 0.60417,0.60416 1.05416,0.0434 1.64479,-0.19293 1.3125,-0.52522 z M 362.66228,210.75 c -0.27741,-0.6875 -0.50439,-0.125 -0.50439,1.25 0,1.375 0.22698,1.9375 0.50439,1.25 0.27741,-0.6875 0.27741,-1.8125 0,-2.5 z m 206.8344,334.87123 c -1.7974,-1.31429 -1.80526,-1.50134 -0.16807,-4 0.94462,-1.44167 2.17295,-2.62123 2.72963,-2.62123 2.04692,0 5.94176,3.28277 5.94176,5.00802 0,3.04331 -5.19872,4.02959 -8.50332,1.61321 z M 575,544.12244 c 0,-0.48265 -0.63494,-1.4045 -1.41097,-2.04855 -1.56708,-1.30056 -3.16989,0.17725 -2.08903,1.92611 0.76156,1.23222 3.5,1.32803 3.5,0.12244 z M 272.1681,497.77173 c -2.70053,-11.69955 -9.29293,-62.53315 -10.15072,-78.27173 -0.44965,-8.25 -1.51702,-19.725 -2.37194,-25.5 -4.58404,-30.96521 -8.76314,-61.70268 -9.63346,-70.85442 -0.80641,-8.47976 -1.51298,-11.28603 -3.90263,-15.5 -1.81642,-3.20313 -3.33091,-7.85614 -4.0119,-12.32589 -0.60168,-3.94918 -1.54475,-8.36597 -2.09571,-9.8151 -1.86314,-4.90043 -0.82223,-34.52069 2.03838,-58.00459 1.21656,-9.98728 7.82657,-30.5 9.8283,-30.5 1.63092,0 1.80663,-2.8148 -2.86432,45.88555 l -3.10616,32.38555 2.64953,5.41545 c 2.72307,5.56575 6.93343,9.19403 13.20253,11.37727 1.7875,0.62251 3.25,1.75424 3.25,2.51495 0,1.40232 -1.40603,1.87475 -8.3739,2.81369 -2.13065,0.28711 -4.10812,0.75622 -4.39437,1.04248 -1.42633,1.42633 3.44778,10.44137 7.90748,14.62547 5.76099,5.40498 6.29542,7.4136 1.70422,6.4052 l -3.15656,-0.6933 0.62751,8.36385 c 0.60015,7.99912 9.21882,67.01893 10.16531,69.61107 0.25048,0.68598 2.49502,2.23815 4.98786,3.44927 2.49285,1.21112 4.53123,2.89986 4.52975,3.75277 -10e-4,0.8529 -1.68388,2.45073 -3.73865,3.55073 -3.59791,1.9261 -7.1238,6.96818 -5.79914,8.29284 0.3527,0.35271 3.7686,0.51361 7.59088,0.35756 3.82229,-0.15605 6.94887,0.0838 6.94797,0.53294 -9.1e-4,0.44916 -1.82149,2.529 -4.04574,4.62186 -2.22425,2.09286 -4.50512,5.01778 -5.06859,6.49982 -2.77344,7.29469 0.21004,40.01598 4.13991,45.40449 2.55349,3.50127 2.49234,4.71368 -0.52394,10.38651 -1.375,2.58602 -2.53163,6.09734 -2.57029,7.80292 -0.0387,1.70558 -0.45702,4.00106 -0.92971,5.10106 -0.62311,1.45007 -0.87876,0.47293 -0.92971,-3.55366 -0.0519,-4.10022 0.62092,-6.94073 2.57086,-10.85374 1.60029,-3.21138 2.25043,-5.55478 1.6497,-5.94635 -2.77594,-1.80943 -4.69596,-9.90188 -6.32214,-26.64625 -1.42864,-14.71045 -0.46607,-21.69522 3.75117,-27.22012 l 3.41901,-4.47914 -4.02727,0.6804 c -5.79238,0.97862 -8.11162,-0.014 -8.11162,-3.4718 0,-3.16597 3.98383,-8.55204 7.04392,-9.52328 2.76016,-0.87604 2.43106,-2.04668 -0.97163,-3.45611 -1.61023,-0.66699 -3.60029,-1.95908 -4.42233,-2.87133 C 266.83173,397.14089 257,333.28698 257,323.49587 257,317.86965 257.24481,317 258.82858,317 c 1.41715,0 0.90474,-0.96418 -2.27735,-4.28519 C 252.79509,308.79468 250,302.77652 250,298.60923 c 0,-2.02296 3.85559,-3.60585 8.8151,-3.619 l 3.6849,-0.01 -5.11703,-2.38262 c -5.11571,-2.382 -8.61382,-6.07037 -11.88611,-12.53254 -1.95366,-3.85813 -2.06118,-1.5368 2.08087,-44.92411 1.38402,-14.49735 2.35418,-26.84546 2.15591,-27.44026 -0.94117,-2.82353 -4.93942,14.308 -6.2545,26.79907 -2.53957,24.12167 -3.03534,45.27713 -1.19618,51.04365 0.86942,2.72599 1.88267,7.43135 2.25168,10.45635 0.39263,3.21859 1.90499,7.68094 3.64598,10.75778 2.45782,4.34367 3.13873,7.03845 3.91645,15.5 0.83262,9.05888 4.26897,34.35676 9.47346,69.74222 0.93028,6.325 2.0461,18.025 2.4796,26 0.76237,14.02505 2.72831,30.59762 7.02171,59.19186 1.1307,7.53053 1.87774,15.40553 1.66009,17.5 -0.21765,2.09448 -0.47137,3.48042 -0.56383,3.07987 z M 250.68311,203.8125 c -0.31922,-0.79773 -0.55618,-0.56078 -0.60416,0.60417 -0.0434,1.05416 0.19292,1.64479 0.52522,1.3125 0.33229,-0.3323 0.36781,-1.1948 0.0789,-1.91667 z m 147.98356,150.52083 c -1.20585,-1.20584 -0.69583,-4.38491 0.79526,-4.9571 0.80407,-0.30854 1.75462,-1.53192 2.11235,-2.71861 0.35772,-1.18669 1.7888,-3.37399 3.18016,-4.86065 2.26101,-2.41589 2.54121,-3.58297 2.63766,-10.98613 0.0917,-7.03705 0.37072,-8.33374 1.85499,-8.61973 1.10555,-0.21302 2.0488,0.51629 2.56875,1.98613 1.00317,2.83581 0.67818,12.7921 -0.60665,18.58574 -0.75445,3.402 -0.68993,4.05096 0.31948,3.21323 0.69567,-0.57736 1.04586,-1.8872 0.7782,-2.91075 -0.68349,-2.61364 1.40047,-6.06546 3.66189,-6.06546 1.30716,0 1.99694,-0.82505 2.21482,-2.64914 0.38824,-3.25045 3.2209,-5.34638 4.92396,-3.64332 0.87735,0.87735 0.8837,2.27018 0.0259,5.67687 -0.85228,3.38474 -0.84929,5.14507 0.012,7.03532 1.4486,3.17932 -0.46893,5.99043 -3.53865,5.18768 -1.11814,-0.2924 -2.72457,0.0872 -3.56985,0.84352 C 414.30539,351.00022 403.4317,355 400.95133,355 c -0.8899,0 -1.918,-0.3 -2.28466,-0.66667 z m 15.39132,-6.60639 c 2.40169,-1.74274 2.38787,-1.74618 -0.83736,-0.2086 -4.23547,2.0192 -5.44463,1.19261 -4.62744,-3.16337 l 0.65455,-3.48907 -2.67972,2.48349 c -1.47385,1.36591 -2.74947,3.40935 -2.83471,4.54096 -0.0853,1.13162 -0.73511,2.2801 -1.44415,2.55218 -0.70904,0.27209 -1.28916,0.91013 -1.28916,1.41787 0,1.24777 10.0078,-1.92016 13.05799,-4.13346 z m 6.65848,-3.18538 c -0.63658,-0.68146 -1.95314,-1.03092 -2.92569,-0.7766 -2.4182,0.63238 -1.53089,1.70444 1.55215,1.87533 1.97173,0.10929 2.27522,-0.13348 1.37354,-1.09873 z m -1.50156,-3.39682 c -0.15679,-0.74539 0.11866,-1.87039 0.61212,-2.5 0.49346,-0.62961 1.17228,-2.49474 1.5085,-4.14474 0.45499,-2.23285 0.38375,-2.48857 -0.27858,-1 -0.48944,1.1 -1.13836,2.7875 -1.44204,3.75 -0.30368,0.9625 -1.46626,1.75 -2.58353,1.75 -1.11726,0 -2.03138,0.1882 -2.03138,0.41821 0,0.23002 -0.28691,1.16588 -0.63757,2.0797 -0.51823,1.35048 -0.0971,1.59977 2.25,1.33179 1.79052,-0.20444 2.77926,-0.84459 2.60248,-1.68496 z m -8.40804,-5.6712 c -0.30789,-0.30789 -0.86705,0.24711 -1.24258,1.23333 -0.54268,1.4252 -0.42782,1.54006 0.5598,0.5598 0.68342,-0.67834 0.99067,-1.48524 0.68278,-1.79313 z m -1.11388,-10.20451 c -0.25354,-0.97297 -0.47766,-0.41903 -0.49804,1.23097 -0.0204,1.65 0.18706,2.44606 0.46099,1.76903 0.27392,-0.67703 0.29059,-2.02703 0.0371,-3 z m 16.3837,19.87427 C 425.48451,344.0368 425,342.43547 425,341.58479 c 0,-1.67555 4.22418,-3.18231 5.94316,-2.11992 1.2949,0.8003 1.41655,6.53513 0.13863,6.53513 -0.50502,0 -1.59551,0.2599 -2.42331,0.57756 -0.90272,0.3464 -1.93601,-0.22762 -2.58179,-1.43426 z M 430,343 c 0,-0.55 -0.45,-1 -1,-1 -0.55,0 -1,0.45 -1,1 0,0.55 0.45,1 1,1 0.55,0 1,-0.45 1,-1 z m -35.55525,-4.06105 c -1.5963,-1.76389 -1.65469,-2.19422 -0.40499,-2.98469 1.21706,-0.76982 1.16881,-0.92618 -0.28976,-0.93895 -1.40695,-0.0123 -1.75,-0.90359 -1.75,-4.54669 0,-2.7658 0.50012,-4.7233 1.28356,-5.02394 0.73138,-0.28065 1.36628,-2.39335 1.47586,-4.91105 0.10852,-2.49362 1.59985,-7.49384 3.42327,-11.47781 2.71535,-5.93272 3.55704,-6.9807 5.27414,-6.56679 1.12375,0.27088 1.48067,0.23416 0.79317,-0.0816 -0.6875,-0.31576 -1.25,-1.02964 -1.25,-1.5864 0,-1.73815 4.06949,-6.82104 5.46111,-6.82104 2.58461,0 2.53078,3.14408 -0.1132,6.61051 -2.16811,2.84254 -2.45697,3.86526 -1.60381,5.67824 0.57233,1.21619 0.97654,3.78625 0.89825,5.71125 -0.11533,2.83558 -0.53124,3.48903 -2.19094,3.44224 -1.73751,-0.049 -1.97097,0.40657 -1.53742,3 0.42679,2.553 0.5701,2.68634 0.86814,0.80776 0.42291,-2.66563 2.72216,-2.98418 3.67207,-0.50876 0.42071,1.09635 -0.003,2.30004 -1.14301,3.25 -0.99616,0.82982 -1.81119,2.6276 -1.81119,3.99506 0,1.57286 -0.64294,2.61013 -1.75,2.82333 -1.15996,0.22339 -1.75,-0.28979 -1.75,-1.52202 0,-1.18007 -0.71623,-1.85904 -1.96106,-1.85904 -1.86582,0 -1.87796,0.0984 -0.25,2.02592 0.94108,1.11426 2.49856,2.61835 3.46106,3.34242 2.89305,2.1764 2.08373,4.96733 -2.23013,7.69055 -2.18907,1.38189 -4.14432,2.51254 -4.34501,2.51254 -0.20069,0 -1.20424,-0.92747 -2.23011,-2.06105 z m 5.60491,-2.46463 C 402.91123,334.99454 404.03089,333 402,333 c -0.55,0 -1,0.43563 -1,0.96806 0,0.53244 -1.2375,1.63942 -2.75,2.45997 -3.63111,1.9699 -2.00127,2.01183 1.79966,0.0463 z m -1.83737,-5.16422 c 0.39176,-0.20984 0.20863,-1.48694 -0.40695,-2.838 -0.86803,-1.9051 -1.4207,-2.20629 -2.46229,-1.34184 -0.73868,0.61305 -1.34305,2.17041 -1.34305,3.4608 0,2.23954 1.04159,2.41734 4.21229,0.71904 z M 401.9682,318.75 C 401.9857,318.3375 401.325,318 400.5,318 c -0.825,0 -1.5,-0.75 -1.5,-1.66667 0,-2.72522 -1.33537,-0.55555 -1.49184,2.4239 -0.1787,3.4029 1.45306,4.65589 3.15248,2.42072 0.70166,-0.92287 1.29006,-2.01545 1.30756,-2.42795 z m -0.2182,-6 c -0.1375,-0.6875 0.34595,-1.12635 1.07433,-0.97522 0.72838,0.15112 1.02582,-0.20823 0.66097,-0.79856 -0.46587,-0.7538 -1.08012,-0.72745 -2.06332,0.0885 -0.76998,0.63902 -1.15336,1.56088 -0.85195,2.04856 0.79809,1.29134 1.46955,1.0846 1.17997,-0.36331 z m 2.18699,-4.28894 c 1.23048,0.76048 1.26085,-0.13806 0.10006,-2.96106 l -0.82238,-2 -0.75933,2 c -0.41764,1.1 -1.47844,2.9 -2.35734,4 -1.57509,1.97132 -1.56664,1.9735 0.58899,0.15204 1.20284,-1.01638 2.66534,-1.55232 3.25,-1.19098 z M 432,334.45034 c 0,-2.98859 3.06018,-7.58623 4.80784,-7.22334 1.95157,0.40524 2.02715,5.06198 0.11946,7.3606 -1.57186,1.89398 -4.9273,1.8005 -4.9273,-0.13726 z m 3.80687,-2.9768 c -0.30789,-0.30789 -0.86705,0.24711 -1.24258,1.23333 -0.54268,1.4252 -0.42782,1.54006 0.5598,0.5598 0.68342,-0.67834 0.99067,-1.48524 0.68278,-1.79313 z m -21.34697,-1.53843 c -0.36198,-0.58568 -0.36814,-2.61068 -0.0137,-4.5 0.5212,-2.77823 1.10255,-3.43511 3.04011,-3.43511 1.31761,0 2.64021,0.39568 2.9391,0.87929 0.87711,1.4192 4.51499,2.02618 5.22811,0.87232 0.36053,-0.58334 0.20227,-0.78051 -0.35168,-0.43815 -1.78455,1.10291 -4.33676,-1.72316 -4.57261,-5.06325 -0.165,-2.33675 -0.71951,-3.24679 -1.97922,-3.24822 -2.47569,-0.003 -2.16959,-2.25918 0.66816,-4.92511 1.89683,-1.78197 3.0801,-2.12635 5.48853,-1.59737 1.68871,0.3709 3.3429,1.11532 3.67599,1.65426 1.04185,1.68576 -0.54317,5.86623 -2.22418,5.86623 -1.30575,0 -1.37426,0.27608 -0.36907,1.48727 0.67888,0.81799 0.99265,2.11706 0.69726,2.88681 -0.36303,0.94604 0.0185,1.25427 1.17745,0.9512 0.94298,-0.2466 2.56638,0.49296 3.60757,1.64346 1.50941,1.66788 1.69923,2.64303 0.9366,4.81154 -0.82406,2.34322 -1.50688,2.71972 -4.93239,2.71972 -2.44993,0 -3.89309,-0.4404 -3.76011,-1.14744 0.2433,-1.29355 -3.42176,-0.63737 -4.29041,0.76815 -0.75877,1.22771 -4.17085,1.10018 -4.9655,-0.1856 z m 15.95036,-2.56186 c 0.34334,-0.89471 0.0861,-2.27516 -0.57161,-3.06766 -1.01548,-1.22359 -1.38982,-1.09135 -2.48182,0.87674 -1.75847,3.16927 -1.6674,3.81767 0.53618,3.81767 1.04116,0 2.17392,-0.73204 2.51725,-1.62675 z M 419,326.55902 c 0,-0.79254 -0.45,-1.7191 -1,-2.05902 -0.55,-0.33992 -1,-0.40328 -1,-0.1408 0,0.26247 -0.27314,1.18903 -0.60699,2.05901 -0.39831,1.03799 -0.0545,1.58179 1,1.58179 0.88385,0 1.60699,-0.64844 1.60699,-1.44098 z m 5.45729,-6.48992 c 0.31644,-0.512 0.11799,-1.21356 -0.44098,-1.55902 -0.55897,-0.34546 -1.01631,0.0734 -1.01631,0.9309 0,1.75653 0.60006,2.01516 1.45729,0.62812 z m 2.25074,-7.69178 c 0.53648,-1.61146 -3.84047,-2.51229 -5.50294,-1.13256 -1.17629,0.97623 -1.10498,1.27862 0.44796,1.8996 2.41596,0.96607 4.5877,0.63654 5.05498,-0.76704 z M 440,319.70295 c 0,-0.71338 1.78667,-3.04169 3.97037,-5.17402 3.59631,-3.5117 4.2087,-3.76837 6.5,-2.72438 3.26345,1.48692 3.18792,2.691 -0.39345,6.27237 -2.14116,2.14117 -3.87989,2.92308 -6.5,2.92308 C 441.31285,321 440,320.52394 440,319.70295 Z m 7.90089,-3.09745 c 1.23724,-1.31698 1.83454,-2.65098 1.32734,-2.96445 -0.5072,-0.31346 -2.20023,0.76406 -3.7623,2.39451 -1.97479,2.06124 -2.3792,2.96444 -1.32734,2.96444 0.83203,0 2.52507,-1.07753 3.7623,-2.3945 z M 440,307.06611 c 0,-4.77957 4.16174,-9.32025 6.9583,-7.59188 0.97453,0.60229 0.32946,6.47074 -0.84054,7.64666 -0.33977,0.34149 -1.85526,0.91257 -3.36776,1.26905 -2.28944,0.53961 -2.75,0.3179 -2.75,-1.32383 z m 4.65492,-2.60924 c 0.93028,-2.42426 -0.36778,-2.86191 -1.60908,-0.54252 -0.77398,1.44619 -0.7892,2.08565 -0.0496,2.08565 0.58661,0 1.33304,-0.69441 1.65872,-1.54313 z m -30.48343,0.91845 c 0.26974,-2.36092 0.86521,-2.93588 3.32851,-3.21381 1.65,-0.18616 3.54279,-0.7874 4.2062,-1.33609 2.43413,-2.01319 4.44392,1.82322 2.52849,4.82654 -0.40408,0.63357 -2.90752,1.47747 -5.5632,1.87532 l -4.82852,0.72336 z M 417.5,305 c 0.33992,-0.55 0.14148,-1 -0.44098,-1 -0.58246,0 -1.05902,0.45 -1.05902,1 0,0.55 0.19844,1 0.44098,1 0.24254,0 0.7191,-0.45 1.05902,-1 z m 10.5,0.45034 c 0,-2.40652 2.74745,-7.13945 4.5448,-7.82916 4.77649,-1.83291 5.78794,0.6807 2.46616,6.12882 C 432.86305,307.27283 428,308.45225 428,305.45034 Z m 5.48611,-3.42348 c 1.23557,-2.38933 1.26721,-2.86943 0.16113,-2.44499 -1.6768,0.64345 -4.0134,5.41813 -2.65148,5.41813 0.52408,0 1.64474,-1.33791 2.49035,-2.97314 z m -19.00309,-2.05434 c -0.85429,-1.38226 2.784,-7.47252 4.46404,-7.47252 2.07716,0 3.41575,2.9183 2.68114,5.84522 -0.5309,2.1153 -1.26007,2.65478 -3.58824,2.65478 -1.60706,0 -3.20768,-0.46237 -3.55694,-1.02748 z m 5.1719,-2.51565 c 0.80982,-2.11034 -0.54185,-3.2497 -1.69398,-1.42791 -1.22421,1.93575 -1.19966,2.97104 0.0704,2.97104 0.56727,0 1.29786,-0.69441 1.62354,-1.54313 z M 458,298.95034 c 0,-2.9354 2.80313,-7.95034 4.44389,-7.95034 4.79017,0 6.07628,3.99116 2.51715,7.81144 -2.68039,2.87707 -6.96104,2.96248 -6.96104,0.1389 z m 5.40159,-2.11331 C 464.86185,294.75222 464.72481,293 463.1015,293 462.41819,293 460,297.32495 460,298.54705 c 0,1.23866 2.06249,0.20182 3.40159,-1.71002 z m -50.7466,-5.66577 C 411.74474,290.16545 411,288.67588 411,287.8611 c 0,-0.81478 -1.41189,-2.92553 -3.13752,-4.69056 -3.04115,-3.11056 -3.08247,-3.26998 -1.34502,-5.18984 2.34022,-2.5859 3.92732,-2.50448 5.24907,0.2693 0.92955,1.95073 1.00372,1.78047 0.55766,-1.28009 -0.44546,-3.05634 -0.15749,-3.72116 2.14569,-4.95379 2.31017,-1.23636 2.78305,-1.2324 3.5939,0.0301 1.42784,2.22314 0.67798,4.27227 -2.07264,5.66393 -1.73179,0.87619 -1.97569,1.26487 -0.80016,1.27512 2.32233,0.0202 3.15093,1.67999 3.46027,6.9312 0.38889,6.60178 -2.49226,9.12667 -5.99626,5.2548 z m 2.78771,-2.5895 c -1.06675,-0.78003 -2.15223,-1.20556 -2.41217,-0.94563 -0.55036,0.55036 2.02834,2.32607 3.4106,2.34856 0.51762,0.008 0.0683,-0.6229 -0.99843,-1.40293 z M 416,282.5 c 0,-0.825 -0.69274,-1.5 -1.53943,-1.5 -1.2719,0 -1.31534,0.25406 -0.25,1.46196 1.63918,1.85851 1.78943,1.86171 1.78943,0.038 z m -7,-3.5 c 0,-0.55 -0.19844,-1 -0.44098,-1 -0.24254,0 -0.7191,0.45 -1.05902,1 -0.33992,0.55 -0.14148,1 0.44098,1 0.58246,0 1.05902,-0.45 1.05902,-1 z m 7.5,-4 c 0.33992,-0.55 0.16803,-1 -0.38197,-1 -0.55,0 -1.27811,0.45 -1.61803,1 -0.33992,0.55 -0.16803,1 0.38197,1 0.55,0 1.27811,-0.45 1.61803,-1 z m -11.84152,13.80204 C 404.0938,286.64267 405.43041,284 407.08726,284 c 1.7542,0 3.11025,4.05709 1.85969,5.56392 -1.73757,2.09365 -3.62963,1.75751 -4.28847,-0.76188 z m 15.85578,-0.77897 c -0.33208,-0.53731 -0.1028,-2.83739 0.5095,-5.11129 1.06053,-3.93852 1.26053,-4.10492 4.22184,-3.51266 4.07059,0.81412 4.06478,0.80428 3.26578,5.5335 -0.64389,3.8112 -0.89837,4.06738 -4.04026,4.06738 -1.8442,0 -3.62478,-0.43962 -3.95686,-0.97693 z M 426,286.08179 c 0,-0.50502 0.25086,-1.57195 0.55747,-2.37096 0.30661,-0.79901 -0.10891,-1.70846 -0.92337,-2.021 -0.99889,-0.38331 -1.8143,0.38833 -2.50545,2.37096 C 422.22332,286.65783 422.33082,287 424.05202,287 425.12341,287 426,286.5868 426,286.08179 Z m 12.41523,1.55791 c -0.31536,-0.82184 -0.42531,-2.53947 -0.24431,-3.81697 0.26083,-1.84101 0.95126,-2.32273 3.32908,-2.32273 2.7619,0 3,0.27778 3,3.5 0,3.07658 -0.33337,3.53835 -2.75569,3.81697 -1.7487,0.20114 -2.96521,-0.22906 -3.32908,-1.17727 z M 443,285 c 0,-1.11111 -0.66667,-2 -1.5,-2 -0.83333,0 -1.5,0.88889 -1.5,2 0,1.11111 0.66667,2 1.5,2 0.83333,0 1.5,-0.88889 1.5,-2 z m 13,-4.01402 c 0,-0.55772 1.0125,-2.57715 2.25,-4.48763 2.43584,-3.76049 5.10449,-4.42618 8.30887,-2.07263 1.88781,1.38655 1.86045,1.51017 -0.99596,4.5 -2.1235,2.22269 -3.85479,3.07428 -6.25,3.07428 C 457.49081,282 456,281.54369 456,280.98598 Z m 7.41016,-2.8867 c 1.126,-1.24423 1.35223,-2.1281 0.65498,-2.55902 -1.35065,-0.83475 -2.76791,0.0358 -4.09495,2.51543 -1.40675,2.62854 1.07219,2.65995 3.43997,0.0436 z m -63.25855,-0.98442 c -0.74162,-0.46998 -1.18616,-1.70059 -0.98787,-2.73469 0.45414,-2.36837 7.65413,-3.01837 8.51732,-0.76893 1.23512,3.21868 -4.07792,5.69096 -7.52945,3.50362 z m 5.19341,-1.86486 c 0.25469,-0.4125 -0.61578,-0.81471 -1.93436,-0.8938 -1.31858,-0.0791 -2.14885,0.25841 -1.84503,0.75 0.67129,1.08616 3.13959,1.18007 3.77939,0.1438 z M 444,271.95455 C 444,268.85271 448.4067,265 451.95455,265 c 3.41684,0 3.43649,0.0518 1.99287,5.25 -1.00421,3.616 -1.20055,3.75 -5.49442,3.75 -3.81932,0 -4.453,-0.29108 -4.453,-2.04545 z m 7.52392,-2.02991 c 0.8558,-2.69639 0.12107,-3.3402 -2.32062,-2.03344 -3.14055,1.68077 -3.57742,4.1088 -0.7393,4.1088 1.55203,0 2.63417,-0.73395 3.05992,-2.07536 z m -41.85725,2.40869 C 408.5837,271.25036 408.90627,267 410.07143,267 c 0.58928,0 0.36428,-0.70714 -0.5,-1.57143 -1.88603,-1.88603 -1.95289,-2.64711 -0.37143,-4.22857 0.93333,-0.93333 0.85789,-1.2 -0.33948,-1.2 -0.84672,0 -2.095,-1.21921 -2.77395,-2.70935 -1.038,-2.27815 -0.98397,-2.89251 0.33948,-3.86024 0.86567,-0.63299 1.57395,-1.86643 1.57395,-2.74096 0,-0.87454 0.73153,-1.99946 1.62563,-2.49982 1.37489,-0.76943 1.24119,-1.00624 -0.86682,-1.53532 -1.93174,-0.48483 -2.62797,-1.46061 -3.09481,-4.33743 -0.3313,-2.04152 -0.47091,-3.8433 -0.31026,-4.00395 0.16065,-0.16065 1.72178,-0.57803 3.46918,-0.92751 3.44253,-0.68851 3.25913,-1.11202 3.59812,8.30879 0.0434,1.20681 0.64146,2.75931 1.32896,3.45 0.6875,0.69068 1.25,1.86631 1.25,2.61249 0,1.08228 0.44955,1.04183 2.22251,-0.2 2.87978,-2.01707 5.40058,-1.9813 6.19461,0.0879 0.73123,1.90556 -2.00225,5.35538 -4.24337,5.35538 -0.83395,0 -2.34196,-0.74724 -3.35114,-1.66054 -2.38853,-2.16159 -3.64474,-0.90538 -1.48315,1.48315 2.1977,2.42843 2.09416,4.08692 -0.42237,6.76565 -1.91922,2.04291 -1.93887,2.20515 -0.25,2.06445 1.39147,-0.11593 1.76811,0.44939 1.56385,2.34729 -0.35945,3.33982 -3.84406,6.05355 -5.56427,4.33333 z M 413,269 c 0,-0.55 -0.45,-1 -1,-1 -0.55,0 -1,0.45 -1,1 0,0.55 0.45,1 1,1 0.55,0 1,-0.45 1,-1 z m 0.12756,-7.75 c 1.24387,-1.58606 1.2085,-1.62143 -0.37756,-0.37756 -1.66575,1.30637 -2.19548,2.12756 -1.37244,2.12756 0.20765,0 0.99515,-0.7875 1.75,-1.75 z m -2.34405,-5.22504 c -0.71848,-1.15047 -1.60413,-1.60434 -2.12134,-1.08713 -1.14982,1.14982 0.0401,3.06217 1.90532,3.06217 1.19303,0 1.23124,-0.34942 0.21602,-1.97504 z m 9.98755,-2.83814 c 0.24358,-0.73075 -0.21359,-0.95424 -1.1875,-0.58051 -0.87096,0.33422 -1.58356,1.04702 -1.58356,1.58401 0,1.31439 2.27278,0.49134 2.77106,-1.0035 z M 412,251.44098 c 0,-0.85746 -0.45,-1.2809 -1,-0.94098 -0.55,0.33992 -1,1.04148 -1,1.55902 0,0.51754 0.45,0.94098 1,0.94098 0.55,0 1,-0.70156 1,-1.55902 z m -1.78519,-9.43078 c -0.24135,-1.64438 -0.83841,-2.74283 -1.32681,-2.44098 -1.03979,0.64262 -1.18643,3.79902 -0.22133,4.76411 1.40405,1.40406 1.97043,0.55415 1.54814,-2.32313 z M 421.25,272.33772 c -1.63905,-0.66137 -1.59302,-3.48635 0.0944,-5.79405 1.56995,-2.14704 6.36008,-1.47733 7.31969,1.02337 1.20148,3.13102 -3.68512,6.27535 -7.4141,4.77068 z m 4.65308,-2.72094 c 0.89173,-1.07447 0.7695,-1.52845 -0.54761,-2.03387 -1.72445,-0.66173 -3.62907,1.16537 -2.73047,2.61934 0.73613,1.19109 1.98944,0.96725 3.27808,-0.58547 z m 1.3399,-6.7738 c -2.09721,-2.09721 -1.38947,-4.71587 1.70736,-6.3173 4.54452,-2.35006 5.19779,-1.98365 4.85716,2.72432 -0.26723,3.69348 -0.63578,4.28836 -2.81452,4.54298 -1.37887,0.16113 -3.06637,-0.26637 -3.75,-0.95 z M 432,259.39301 c 0,-1.05452 -0.5438,-1.39831 -1.58179,-1 -0.86998,0.33385 -1.79654,0.60699 -2.05901,0.60699 -0.26248,0 -0.19912,0.45 0.1408,1 0.98476,1.59337 3.5,1.15716 3.5,-0.60699 z m 32.25,-1.42417 c -2.91645,-1.17227 -2.84946,-3.05705 0.21085,-5.93206 2.22465,-2.08995 2.75462,-2.19017 5.52146,-1.04411 3.80465,1.57594 4.24112,2.26891 3.43988,5.46134 -0.52011,2.07226 -1.22356,2.5342 -3.7806,2.4826 -1.72787,-0.0349 -4.15409,-0.47036 -5.39159,-0.96777 z m 7.06387,-2.34438 c 0.72473,-1.88861 -3.66498,-3.87335 -5.1912,-2.34713 -1.58642,1.58642 -1.39656,2.50445 0.62733,3.03334 3.18164,0.83145 4.03046,0.70383 4.56387,-0.68621 z M 480,257.125 c 0,-1.03125 0.29089,-3.32944 0.64642,-5.10708 0.6113,-3.0565 0.8375,-3.20108 4.16369,-2.66131 4.70922,0.7642 5.45264,1.72589 4.64835,6.01314 C 488.79833,258.88851 488.64264,259 484.38871,259 480.76419,259 480,258.67351 480,257.125 Z m 7.29317,-2.13809 c 0.35319,-1.35061 -0.13024,-2.36453 -1.46901,-3.08102 -2.36527,-1.26585 -2.46166,-1.19837 -3.35128,2.34616 -0.61406,2.44659 -0.41643,2.74795 1.80208,2.74795 1.65617,0 2.66831,-0.67508 3.01821,-2.01309 z M 441,255.33789 c 0,-0.36416 0.75718,-3.06416 1.68262,-6 1.8135,-5.75308 3.92107,-6.8106 7.84903,-3.93841 1.75264,1.28156 1.78981,1.63235 0.44113,4.16315 C 448.93255,253.39112 441,257.98488 441,255.33789 Z m 7.4499,-6.06793 c 0.33981,-0.88553 0.0531,-1.95907 -0.63707,-2.38564 -1.5142,-0.93582 -1.26365,-1.20233 -3.15073,3.35139 l -1.5481,3.7357 2.35903,-1.5457 c 1.29747,-0.85013 2.63706,-2.27022 2.97687,-3.15575 z m 48.92757,2.5927 c 1.10691,-5.53458 3.27056,-7.98272 6.40305,-7.24494 4.04607,0.95294 4.55203,1.81404 3.55538,6.05087 -0.87708,3.72854 -1.03161,3.83974 -5.75566,4.1418 l -4.8544,0.31039 z M 505,251.58179 c 0,-0.78002 0.27314,-2.13002 0.60699,-3 C 506.0611,247.3984 505.582,247 503.70481,247 c -1.88889,0 -2.76769,0.74161 -3.55497,3 -1.00794,2.8914 -0.93909,3 1.90218,3 1.8782,0 2.94798,-0.51465 2.94798,-1.41821 z m -316.34102,-4.67421 c -8.86654,-2.52783 -12.03384,-4.2209 -14.57661,-7.7919 -1.47914,-2.07727 -3.49487,-3.25505 -7.01691,-4.09998 C 160.48609,233.43734 153,228.65061 153,226.02202 c 0,-2.70094 0.9721,-2.56969 8.27612,1.11736 3.42049,1.72666 8.46416,3.41416 11.20815,3.75 3.9375,0.48192 5.06563,1.03217 5.35224,2.61062 0.96202,5.29817 7.18663,8.66367 21.16349,11.4426 6.79947,1.35189 8.50507,1.95312 6,2.11502 l -3.5,0.22619 4,0.71619 c 3.42675,0.61355 2.99682,0.72635 -3,0.78707 -4.1441,0.042 -9.79104,-0.72484 -13.84102,-1.87949 z m -10.01296,-7.35983 c -1.45531,-1.34874 -2.64602,-3.37374 -2.64602,-4.5 0,-1.67155 -0.59707,-2.02273 -3.25,-1.91157 -2.36947,0.0993 -2.63742,0.25399 -0.98897,0.571 1.24357,0.23915 2.93106,1.7305 3.74998,3.31411 0.81892,1.58362 2.27646,3.33799 3.23897,3.8986 2.76712,1.6117 2.7408,1.26429 -0.10396,-1.37214 z m -13.72935,-7.92057 C 163.89573,230.71367 158,227.99897 158,228.44238 c 0,0.62161 5.18459,3.46377 6.41667,3.51758 0.50416,0.022 0.72916,-0.12773 0.5,-0.33278 z M 429,244.60699 C 429,242.1684 430.64613,241 434.08179,241 c 2.40288,0 2.68313,4.49249 0.33642,5.39301 C 430.98248,247.71143 429,247.05793 429,244.60699 Z M 433.5,244 c 0.33992,-0.55 0.16803,-1 -0.38197,-1 -0.55,0 -1.27811,0.45 -1.61803,1 -0.33992,0.55 -0.16803,1 0.38197,1 0.55,0 1.27811,-0.45 1.61803,-1 z M 417,242.53861 c 0,-1.88272 0.72575,-2.86404 2.66284,-3.60052 3.19907,-1.21628 4.63998,-0.11222 4.17182,3.19657 -0.26192,1.85122 -1.04106,2.43345 -3.58466,2.6787 -2.91022,0.2806 -3.25,0.0428 -3.25,-2.27475 z M 422,242 c 0,-0.55 -0.675,-1 -1.5,-1 -0.825,0 -1.5,0.45 -1.5,1 0,0.55 0.675,1 1.5,1 0.825,0 1.5,-0.45 1.5,-1 z m 40.39883,1.59695 c -0.29612,-0.77167 0.40215,-3.24667 1.55171,-5.5 1.50976,-2.95937 2.70921,-4.0927 4.31978,-4.08164 4.22781,0.029 5.02387,1.27073 3.68329,5.74519 -0.98691,3.29402 -1.76453,4.15168 -4.20715,4.64021 -4.24193,0.84838 -4.74251,0.77315 -5.34763,-0.80376 z m 7.13337,-3.69839 C 470.14994,237.95221 469.44589,236 468.1262,236 c -0.41568,0 -1.47337,1.50481 -2.35043,3.34402 -1.58584,3.32554 -1.58152,3.3415 0.78244,2.8896 1.3074,-0.24992 2.64569,-1.3007 2.97399,-2.33506 z M 404.07405,228.25 c -1.87364,-12.09717 -6.1609,-27.27688 -16.8754,-59.75 -11.45378,-34.7137 -15.45703,-44.12367 -20.2117,-47.50929 -3.83573,-2.73129 -29.26779,-15.31156 -39.48695,-19.53271 -3.85,-1.590283 -7.32102,-3.356298 -7.71338,-3.924474 -1.04124,-1.507836 1.93789,-2.38334 8.38182,-2.463241 5.32621,-0.06604 5.79411,-0.27363 7.75,-3.438319 3.89071,-6.295304 2.16987,-16.364022 -6.57614,-38.477219 C 322.69482,36.347388 317.02389,28 312.25305,28 c -3.3666,0 -12.35162,8.83154 -16.05607,15.781815 -1.77604,3.332193 -3.5187,8.654114 -4.1662,12.723202 -0.61219,3.847241 -1.35161,8.519621 -1.64315,10.383066 -0.38508,2.461379 -2.5606,5.519698 -7.9538,11.181377 -5.5178,5.792485 -7.2584,8.260197 -6.77977,9.611917 1.10215,3.1126 4.65231,6.418029 9.59594,8.934454 2.6125,1.329823 4.75,3.078802 4.75,3.886619 0,0.80782 -2.68047,2.82186 -5.95661,4.47564 -11.07425,5.59027 -22.52544,12.8275 -25.96838,16.4122 -3.29744,3.43321 -3.45361,3.94851 -4.1938,13.83786 -0.42284,5.64952 -0.83896,13.64685 -0.92469,17.77185 -0.11104,5.34247 -0.3862,6.78082 -0.95652,5 l -0.80064,-2.5 -0.19409,2.5 c -0.10675,1.375 -1.61775,-3.03959 -3.35778,-9.8102 -1.74003,-6.77061 -3.56447,-12.39561 -4.05431,-12.5 -0.48984,-0.10439 -5.05046,12.1852 -10.13471,27.3102 -5.08425,15.125 -11.31691,33.35 -13.85034,40.5 -2.53343,7.15 -4.60666,13.9757 -4.60718,15.16821 -10e-4,2.98869 -1.00552,5.33179 -2.28511,5.33179 -0.5886,0 -2.31562,-1.4625 -3.83781,-3.25 l -2.76762,-3.25 0.55338,3.61285 c 0.30436,1.98706 0.0387,4.57456 -0.59039,5.75 C 205.05093,228.77335 204.07796,229 196.89907,229 187.64866,229 185,227.97944 185,224.41516 c 0,-4.87456 2.56164,-8.08945 7.01287,-8.80123 2.57687,-0.41205 4.91603,-1.59925 6.29405,-3.19443 1.2062,-1.39626 4.06622,-4.44201 6.35562,-6.76834 3.96201,-4.02593 4.54964,-5.48026 12.19848,-30.19042 8.01594,-25.89612 14.60056,-45.63769 17.56979,-52.67653 3.25217,-7.7096 10.5687,-12.89475 25.81919,-18.29782 4.2625,-1.51015 7.75,-3.083 7.75,-3.49522 0,-0.41222 -1.18104,-3.329213 -2.62453,-6.482215 -3.31739,-7.246129 -2.91745,-11.648498 2.5557,-28.132185 9.3938,-28.291671 15.18547,-38.392939 25.98728,-45.324439 13.1516,-8.439361 27.10976,-2.403479 35.4783,15.341772 5.4499,11.556363 14.69325,36.43719 15.85261,42.671321 0.88862,4.778319 0.77129,6.968703 -0.6754,12.608751 -0.96297,3.754204 -1.82355,7.336755 -1.9124,7.961225 -0.0889,0.62447 6.62746,4.54142 14.92514,8.70434 8.29769,4.16292 16.47545,8.98939 18.17281,10.72548 3.25868,3.33307 8.99324,17.32912 17.59152,42.93478 5.73978,17.09304 15.34607,53.2005 16.22818,60.99736 0.62556,5.52922 0.80851,5.86551 2.65369,4.87799 2.70242,-1.44628 3.98875,0.0757 3.58994,4.24749 -0.25043,2.61967 -0.82751,3.44883 -2.57284,3.69671 -1.58707,0.2254 -2.25,-0.18856 -2.25,-1.40499 0,-1.60736 -0.12426,-1.61209 -1.82874,-0.0695 -1.00581,0.91025 -2.29407,1.65499 -2.8628,1.65499 -0.56874,0 -1.57422,-3.4875 -2.23441,-7.75 z m 9.53012,2.02083 c -1.01652,-1.01651 -1.85525,0.51389 -1.02122,1.86338 0.63003,1.01942 0.86558,1.02021 1.2043,0.004 0.2316,-0.69479 0.14921,-1.53513 -0.18308,-1.86742 z M 407.5883,225.25 c -2.18531,-21.44351 -26.34828,-96.96698 -33.45482,-104.56596 -1.44842,-1.54878 -9.54977,-6.26465 -18.00302,-10.47972 -8.45324,-4.21507 -15.58247,-8.21866 -15.84272,-8.89686 -0.26025,-0.67819 0.33811,-3.612319 1.32969,-6.520272 3.04968,-8.943682 2.30436,-15.38041 -3.6228,-31.287188 -8.17827,-21.948085 -13.89715,-33.303292 -19.22909,-38.18061 -8.54881,-7.819894 -16.19494,-7.956918 -26.08067,-0.467382 -8.31385,6.298668 -14.20016,17.09205 -21.92608,40.204583 -1.94083,5.806125 -4.07219,13.006125 -4.73633,16 -1.24864,5.628629 -1.0983,6.448294 3.03479,16.545945 0.69845,1.706395 1.01461,3.767824 0.70258,4.580944 -0.31202,0.81313 -4.09813,2.74797 -8.41357,4.29966 -10.3405,3.7181 -14.54301,5.8727 -18.87737,9.67832 -6.01989,5.28553 -8.36485,11.2488 -22.54746,57.33854 -8.72493,28.35372 -9.01327,29.078 -12.9381,32.5 -2.20786,1.925 -4.00733,3.97831 -3.99881,4.56291 0.031,2.12709 -5.76488,6.52719 -9.36784,7.11187 -3.77112,0.61197 -6.61668,3.38186 -6.61668,6.44074 0,2.29812 2.03572,2.88448 10.0144,2.88448 7.87682,0 8.88407,-1.10272 7.04766,-7.71566 -0.578,-2.08138 -1.05342,-4.34684 -1.05648,-5.03434 -0.0113,-2.5231 2.91279,-1.14088 6.10028,2.88366 l 3.27393,4.13367 1.32886,-6.57515 c 0.73088,-3.61633 3.50707,-12.33898 6.16932,-19.38367 2.66226,-7.04468 8.07836,-22.70851 12.03579,-34.80851 8.84077,-27.03102 8.91377,-27.21984 10.80455,-27.9454 2.6735,-1.02592 3.98373,1.24431 5.89574,10.21555 l 1.86056,8.72985 1.06568,-13.74912 c 1.06441,-13.73278 1.06978,-13.7534 4.51269,-17.34547 4.6453,-4.84654 9.74049,-8.2816 21.70771,-14.63484 l 10.06917,-5.3456 -5.54587,-2.903635 c -5.78238,-3.027462 -9.2738,-7.309251 -9.28025,-11.381054 -0.002,-1.553432 1.96096,-4.291564 5.74626,-8.013553 9.23314,-9.078718 9.25838,-9.124505 10.69263,-19.393366 1.61025,-11.528946 4.71167,-18.206859 11.87101,-25.560399 5.95037,-6.111769 9.96313,-8.537283 12.69145,-7.671349 3.86491,1.226677 10.74764,10.385668 14.46027,19.242608 7.42733,17.718779 10.69692,28.421349 11.22871,36.755778 0.46252,7.248669 0.28644,8.328707 -1.87494,11.5 -2.21323,3.247385 -2.85215,3.541674 -8.85227,4.077401 -3.55677,0.317571 -5.6849,0.655071 -4.72918,0.75 2.16331,0.214875 30.14482,13.123789 38.26232,17.651839 7.11703,3.96997 9.43657,6.33371 12.77726,13.02076 5.46982,10.94892 26.64371,76.2587 29.21719,90.1189 2.452,13.20599 2.49339,13.3811 3.1627,13.3811 0.34047,0 0.30949,-3.0375 -0.0688,-6.75 z m 74.6617,6.08772 C 479.15934,230.09061 482.75788,222 486.40324,222 c 3.72562,0 4.99314,2.26893 3.60953,6.4613 -0.96196,2.91478 -1.63906,3.52478 -3.84032,3.45975 -1.46985,-0.0434 -3.23495,-0.30592 -3.92245,-0.58333 z m 5.28195,-3.43838 c 1.01856,-3.20919 -1.00446,-4.49052 -2.87452,-1.82064 -0.86571,1.23598 -1.34123,2.6239 -1.05671,3.08427 0.97343,1.57504 3.26395,0.83879 3.93123,-1.26363 z M 418,228.7 c 0,-2.76979 1.73776,-4.7 4.23138,-4.7 2.92705,0 3.41602,3.05735 0.82459,5.15576 C 419.96138,231.6616 418,231.4848 418,228.7 Z m 94,1.26016 C 512,227.68213 516.13283,221 517.54176,221 c 0.82562,0 1.99441,1.08266 2.59733,2.40592 1.50469,3.30245 -1.49942,7.51821 -5.38909,7.56266 -1.5125,0.0173 -2.75,-0.43651 -2.75,-1.00842 z m 6.28054,-5.67146 c -0.4637,-1.20839 -0.85597,-1.03389 -1.89712,0.84396 -1.90055,3.42788 -1.67202,4.43849 0.54914,2.42837 1.07598,-0.97375 1.67346,-2.42416 1.34798,-3.27233 z m -71.8865,3.29577 c -0.97573,-2.54271 0.057,-7.0581 1.68473,-7.36627 0.86833,-0.16439 2.78083,0.15812 4.25,0.7167 2.19765,0.83554 2.67123,1.6405 2.67123,4.54035 0,3.45012 -0.0854,3.52475 -4.03138,3.52475 -2.55404,0 -4.23045,-0.51874 -4.57458,-1.41553 z M 453,225.11658 c 0,-1.21488 -0.88741,-2.05306 -2.5,-2.36133 -2.09577,-0.40063 -2.5,-0.0961 -2.5,1.88342 0,1.85209 0.53915,2.36133 2.5,2.36133 1.78175,0 2.5,-0.54111 2.5,-1.88342 z m -22.33333,0.21675 C 430.3,224.96667 430,223.66545 430,222.44174 c 0,-1.57171 0.77644,-2.4198 2.64464,-2.88869 3.34442,-0.83939 4.7911,0.57467 3.96309,3.87373 -0.46105,1.83699 -1.30798,2.57322 -2.96012,2.57322 -1.27285,0 -2.61428,-0.3 -2.98094,-0.66667 z M 434,223 c 0,-0.55 -0.45,-1 -1,-1 -0.55,0 -1,0.45 -1,1 0,0.55 0.45,1 1,1 0.55,0 1,-0.45 1,-1 z m -20.81336,-2.25 c 0.26141,-2.7112 0.72555,-3.25 2.79966,-3.25 1.59817,0 2.61,0.64229 2.83258,1.79804 0.4519,2.34651 -1.55425,4.70196 -4.00468,4.70196 -1.58736,0 -1.88384,-0.59201 -1.62756,-3.25 z m 3.27065,0.3191 c 0.31644,-0.512 0.11799,-1.21356 -0.44098,-1.55902 -0.55897,-0.34546 -1.01631,0.0734 -1.01631,0.9309 0,1.75653 0.60006,2.01516 1.45729,0.62812 z M 134.45497,216.03503 C 117.39308,211.78769 115,210.77908 115,207.83535 v -2.09428 l 37.75,0.69516 c 20.7625,0.38233 38.5375,0.92092 39.5,1.19685 0.9625,0.27593 1.75,1.32323 1.75,2.32732 0,2.59965 -1.78083,3.05462 -17.69856,4.52161 -11.44811,1.05506 -14.77115,1.71626 -17.15437,3.41327 -3.93586,2.80258 -6.8401,2.58378 -24.6921,-1.86025 z m 23.42204,-0.10222 c 2.15181,-1.5909 5.31056,-2.29322 13.70951,-3.0482 29.32783,-2.63627 25.51091,-3.51589 -18.58652,-4.28331 -26.79893,-0.46639 -36.01749,-0.34199 -34.68456,0.46805 1.90111,1.15534 31.87165,8.75216 34.97505,8.86535 0.98477,0.0359 3.04871,-0.86494 4.58652,-2.00189 z m 265.05743,-2.60526 C 421.51761,209.60103 422.42944,208 425.96862,208 c 2.65342,0 3.03138,0.34911 3.03138,2.8 0,5.26909 -4.33624,7.07602 -6.06556,2.52755 z M 427,211.44098 C 427,210.64844 426.55,210 426,210 c -0.55,0 -1,0.92656 -1,2.05902 0,1.13246 0.45,1.7809 1,1.44098 0.55,-0.33992 1,-1.26648 1,-2.05902 z m 53.35771,2.04881 c -0.80969,-2.11002 4.44041,-8.78124 6.33769,-8.05318 0.81972,0.31455 2.5736,0.84378 3.8975,1.17606 3.199,0.8029 3.09446,3.70149 -0.22776,6.31475 -3.12439,2.45764 -9.1502,2.79627 -10.00743,0.56237 z M 489.5,210 c 0,-2.35845 -3.83331,-2.33304 -5.30039,0.0351 -1.23063,1.9865 -1.12335,2.08209 2,1.78199 C 488.32568,211.61283 489.5,210.96628 489.5,210 Z m 16.83716,-1.56377 c -0.33005,-0.86007 -0.10057,-2.66007 0.50994,-4 0.90841,-1.99375 1.84042,-2.43623 5.13146,-2.43623 4.4239,0 4.75774,0.67547 2.49576,5.04966 C 513.29821,209.324 512.25995,210 509.94294,210 c -1.80373,0 -3.24568,-0.62535 -3.60578,-1.56377 z m 5.6829,-1.9604 c 0.69572,-0.83829 0.95423,-1.83487 0.57448,-2.21463 -0.83409,-0.83408 -3.82031,0.9161 -4.36835,2.56024 -0.56969,1.70906 2.30606,1.44709 3.79387,-0.34561 z M 528,208.62212 c 0,-2.53426 3.01162,-8.62217 4.26342,-8.61838 1.42107,0.004 7.73658,3.6914 7.73658,4.51674 0,0.30244 -0.72675,1.65905 -1.61501,3.0147 -1.31011,1.99949 -2.44285,2.46482 -6,2.46482 C 529.32662,210 528,209.58314 528,208.62212 Z M 535.8,206.8 c 1.70865,-1.70865 1.50932,-2.33804 -1.11984,-3.53596 -2.06156,-0.93931 -2.44156,-0.73451 -3.41313,1.83949 -1.00107,2.65212 -0.9066,2.89647 1.11983,2.89647 1.21723,0 2.75314,-0.54 3.41314,-1.2 z m -76.13333,0.53333 C 459.3,206.96667 459,205.44415 459,203.94996 c 0,-2.7202 1.87674,-3.90218 6.25,-3.93631 1.80527,-0.0141 2.37692,3.18904 1.14301,6.40456 -0.603,1.57139 -5.41536,2.22611 -6.72634,0.91512 z M 464,205.58179 c 0,-0.23002 0.26055,-1.09719 0.57899,-1.92704 0.43481,-1.13309 0.0613,-1.37344 -1.5,-0.96516 C 460.7028,203.31098 460.23249,206 462.5,206 c 0.825,0 1.5,-0.1882 1.5,-0.41821 z M 114.06327,202.06327 C 111.62176,199.62176 110.8185,197.78277 101.36871,173 97.279215,162.275 93.653812,151.3052 93.312259,148.62266 l -0.621004,-4.87734 22.404375,0.7356 c 12.3224,0.40459 27.12501,1.02439 32.89467,1.37734 l 10.49031,0.64174 8.71298,21 c 9.56271,23.04801 13.46161,34.17743 12.35983,35.28123 -0.3946,0.39532 -14.83745,0.84937 -32.09522,1.00899 -30.33575,0.28058 -31.44475,0.22323 -33.39493,-1.72695 z M 171.5,201.29686 c -1.65,-0.21068 -14.46806,-0.70116 -28.48458,-1.08996 l -25.48457,-0.7069 -2.8248,-7 C 107.96583,175.79734 99,151.02772 99,149.10937 c 0,-1.99563 0.385335,-2.06564 8.75,-1.58971 34.13294,1.94206 44.83602,2.75264 46.94772,3.55551 2.57939,0.98068 2.96004,1.72713 11.32909,22.21572 2.87361,7.03499 5.39992,12.61572 5.61402,12.40161 0.21411,-0.2141 -3.04657,-8.71829 -7.24596,-18.89818 l -7.63523,-18.50891 -14.62982,-0.62872 C 93.478569,145.56589 95,145.57363 95,147.41697 c 0,2.01448 12.922,37.07781 17.24036,46.78101 1.63949,3.68389 3.71861,6.89419 4.62027,7.134 0.90165,0.23981 14.23937,0.4162 29.63937,0.39198 15.4,-0.0242 26.65,-0.21641 25,-0.4271 z M 165.84594,178.75 c -4.89056,-11.6875 -9.29277,-22.19849 -9.78268,-23.35775 -1.15495,-2.7329 -3.35676,-3.12007 -24.7851,-4.35824 -31.39063,-1.81381 -30.35064,-1.83016 -29.63484,0.46599 0.62983,2.02035 11.24678,30.13134 15.39045,40.75 l 2.2438,5.75 18.11121,0.0993 c 14.78366,0.081 29.22869,0.77712 36.23016,1.74592 0.61541,0.0852 -2.88243,-9.40767 -7.773,-21.09517 z m 9.27613,14.575 c -1.17884,-2.02721 -1.46351,-1.37835 -0.49853,1.13634 0.34294,0.8937 0.83419,1.41426 1.09166,1.15679 0.25747,-0.25747 -0.009,-1.28938 -0.59313,-2.29313 z m -2,-5 c -1.17884,-2.02721 -1.46351,-1.37835 -0.49853,1.13634 0.34294,0.8937 0.83419,1.41426 1.09166,1.15679 0.25747,-0.25747 -0.009,-1.28938 -0.59313,-2.29313 z m 267.27689,9.12843 c -0.77453,-3.08594 -0.66227,-3.21694 3.1085,-3.62756 2.72538,-0.29678 3.02052,-0.0357 3.3059,2.92413 0.29153,3.02358 0.10126,3.25 -2.73095,3.25 -2.42812,0 -3.17367,-0.51544 -3.68345,-2.54657 z M 445,197 c 0,-0.55 -0.70156,-1 -1.55902,-1 -0.85746,0 -1.2809,0.45 -0.94098,1 0.33992,0.55 1.04148,1 1.55902,1 0.51754,0 0.94098,-0.45 0.94098,-1 z m 51,-9.25053 c 0,-3.40769 0.14642,-3.54434 4.49706,-4.19676 C 505.80874,182.75618 507,183.29608 507,186.5 c 0,2.93407 -0.64889,3.35307 -6.41707,4.14369 L 496,191.27185 Z m 8.93333,-0.40978 c 0.23834,-0.20516 0.0133,-0.78091 -0.5,-1.27943 -1.33696,-1.2984 -6.43333,-0.0853 -6.43333,1.53132 0,0.99281 0.87471,1.19192 3.25,0.73978 1.7875,-0.34025 3.445,-0.7865 3.68333,-0.99167 z M 467.25,186.31486 c -1.92096,-0.38758 -2.25,-1.09323 -2.25,-4.82539 0,-5.21755 0.7098,-5.81829 5.13513,-4.34615 4.96772,1.65259 5.94812,2.89508 5.02579,6.36938 -0.82008,3.08914 -2.87715,3.81778 -7.91092,2.80216 z m 5.75,-3.69823 c 0,-1.62631 -0.71469,-2.5749 -2.25,-2.98634 -3.47665,-0.93171 -3.75,-0.80049 -3.75,1.80016 0,2.30645 0.36757,2.54684 5.25,3.43337 0.4125,0.0749 0.75,-0.93634 0.75,-2.24719 z m -28.46355,0.67257 c -0.78149,-3.11369 1.33869,-5.2892 5.15468,-5.2892 1.8621,0 2.30887,0.54181 2.30887,2.8 0,5.48881 -6.19236,7.55405 -7.46355,2.4892 z M 450,181.30968 c 0,-1.96839 -2.41213,-1.09701 -2.82265,1.01968 -0.225,1.16012 0.15332,1.48098 1.25,1.06014 C 449.29231,183.05759 450,182.12167 450,181.30968 Z m 69.36755,-4.79425 c -0.31333,-0.81651 0.30055,-2.95401 1.36417,-4.75 1.58699,-2.67974 2.45708,-3.20841 4.85106,-2.94755 4.14903,0.45211 4.7967,1.50226 3.4476,5.59006 -1.09477,3.31719 -1.48804,3.59206 -5.13932,3.59206 -2.57375,0 -4.15268,-0.51818 -4.52351,-1.48457 z M 527.1099,173.25 c 0.70521,-1.92178 0.48908,-2.25 -1.48161,-2.25 -1.50679,0 -2.71309,0.89069 -3.47701,2.56731 -1.10749,2.43068 -1.02864,2.55043 1.48162,2.25 1.66197,-0.1989 2.95946,-1.15693 3.477,-2.56731 z m 30.1401,0.52951 c -2.54359,-1.22673 -2.88313,-3.53139 -0.91652,-6.22089 1.17543,-1.6075 1.76639,-1.68076 4.98607,-0.61817 4.55203,1.5023 5.26081,2.60663 3.62942,5.6549 -1.38176,2.58185 -3.97414,2.98057 -7.69897,1.18416 z m 5.65443,-2.16436 c 0.91768,-1.10573 0.63077,-1.51499 -1.42354,-2.03059 -3.54216,-0.88903 -5.29746,0.34518 -2.94125,2.06808 2.31404,1.69207 2.9338,1.68675 4.36479,-0.0375 z M 490,165.06037 V 161 h 4.06037 4.06036 l -0.31036,3.75 c -0.29352,3.54636 -0.51401,3.76685 -4.06037,4.06037 l -3.75,0.31036 z m 5.81184,-0.32185 C 496.04294,163.53852 495.50442,163 494.07332,163 492.64223,163 492,163.64223 492,165.07332 c 0,2.56265 3.30983,2.27193 3.81184,-0.3348 z m 83.79515,-2.32031 C 579.27314,161.54823 579,159.35297 579,157.53985 c 0,-3.04174 0.32809,-3.37985 4.24432,-4.3739 5.14189,-1.30515 6.02915,-0.60628 4.77629,3.76217 -1.72762,6.02387 -6.91091,9.40609 -8.41362,5.49009 z M 586,156.38922 c 0,-1.50872 -0.95531,-1.72733 -3.41821,-0.78223 -1.6141,0.61939 -2.17595,4.46552 -0.84654,5.79493 0.89281,0.8928 4.26475,-3.07052 4.26475,-5.0127 z m -74,-8.19809 c 0,-4.42897 1.9412,-6.3228 5.5,-5.36577 4.19462,1.12802 4.83503,5.71656 1.00128,7.17415 C 513.78079,151.79424 512,151.2989 512,148.19113 Z m 6.93333,-0.83202 c 0.23834,-0.21585 -0.0689,-0.8947 -0.68278,-1.50856 C 516.78923,144.38923 514,145.49523 514,147.536 c 0,1.19625 0.56649,1.42464 2.25,0.90716 1.2375,-0.38039 2.445,-0.86821 2.68333,-1.08405 z M 544.25,144.33772 C 543.54862,144.05471 543,142.11433 543,139.91667 V 136 h 6 c 3.3,0 6,0.39504 6,0.87788 0,0.48283 -0.68104,2.50783 -1.51342,4.5 -1.31136,3.13851 -1.94555,3.61158 -4.75,3.54317 -1.78012,-0.0434 -3.79908,-0.30592 -4.48658,-0.58333 z m 6.71482,-3.27198 C 552.49384,138.20874 552.32601,138 548.5,138 c -2.78261,0 -3.5,0.39286 -3.5,1.91667 0,3.2831 4.37197,4.12532 5.96482,1.14907 z m 53.46716,0.6176 c -0.27788,-0.72416 -0.60126,-2.63666 -0.71861,-4.25 -0.20631,-2.83623 -0.0515,-2.94362 4.67614,-3.24383 2.68923,-0.17077 5.21791,0.0542 5.61929,0.5 0.40138,0.44577 0.51437,2.49799 0.25108,4.56049 -0.47177,3.69581 -0.5426,3.75 -4.90067,3.75 -2.73449,0 -4.61479,-0.50246 -4.92723,-1.31666 z M 612,138.5 c 0,-2.11111 -0.46667,-2.5 -3,-2.5 -2.24242,0 -3,0.46296 -3,1.83333 0,2.42852 0.8547,3.16667 3.66667,3.16667 1.82222,0 2.33333,-0.54762 2.33333,-2.5 z m -33.83008,-5.37382 c -0.75546,-0.47892 -1.18747,-2.09236 -1,-3.73469 0.38309,-3.35586 3.22702,-4.28416 6.28178,-2.05046 1.85086,1.35337 1.86065,1.53332 0.21969,4.03774 -1.78397,2.72269 -3.23568,3.18379 -5.50147,1.74741 z M 581.5,129 c -0.48382,-0.78284 -1.05907,-0.84093 -1.72574,-0.17426 -0.55,0.55 -0.67341,1.52841 -0.27426,2.17426 0.48382,0.78284 1.05907,0.84093 1.72574,0.17426 0.55,-0.55 0.67341,-1.52841 0.27426,-2.17426 z M 608,112.95034 c 0,-3.08513 3.14171,-6.67622 6.79955,-7.77214 4.77452,-1.43048 7.20045,-1.50195 7.20045,-0.21213 0,2.44796 -3.5085,7.93512 -5.39806,8.44236 C 613.12001,114.34314 608,114.07048 608,112.95034 Z M 617,110 c 2.87176,-2.87176 2.5547,-4.1614 -0.71723,-2.91741 C 611.15921,109.03056 609.17687,112 613,112 c 1.1,0 2.9,-0.9 4,-2 z"
       id="path1" />
  </g>
</svg>
